# xmcd CD database file
#
# Track frame offsets:
#	150
#	15406
#	38060
#	63995
#	88685
#	97226
#	117720
#	127577
#	144498
#	154523
#	173206
#	199649
#	225793
#	230642
#	256584
#	284950
#	302226
#
# Disc length: 4099 seconds
#
# Revision: 0
# Processed by: cddbd v1.4PL0 Copyright (c) Steve Scherf et al.
# Submitted via: CDex 1.50beta9
#
DISCID=e0100111
DTITLE=Deuter - Silence is the answer 1991
DYEAR=1991
DGENRE=New Age
TTITLE0=Gratitude
TTITLE1=Call of the unknown
TTITLE2=Silence is the answer part 6
TTITLE3=My best friend is a Buddha
TTITLE4=Aus der stille
TTITLE5=As far as the ear can listen
TTITLE6=Song of the heart
TTITLE7=Dawn
TTITLE8=Loving a Buddha part 1
TTITLE9=Loving a Buddha part 2
TTITLE10=Silence is the answer part 1
TTITLE11=Silence is the answer part 4
TTITLE12=Silence is the answer part 5
TTITLE13=Devine dust
TTITLE14=Silence is the answer part 3
TTITLE15=I take rest
TTITLE16=Ananda nada
EXTD=YEAR: 1991
EXTT0=
EXTT1=
EXTT2=
EXTT3=
EXTT4=
EXTT5=
EXTT6=
EXTT7=
EXTT8=
EXTT9=
EXTT10=
EXTT11=
EXTT12=
EXTT13=
EXTT14=
EXTT15=
EXTT16=
PLAYORDER=
